<svg width="533" height="411" viewBox="0 0 533 411" fill="none" xmlns="http://www.w3.org/2000/svg">
<path d="M268.791 273.934C268.791 273.934 409.453 268.005 449.533 309.855C388.741 309.855 301.708 320.016 300.371 320.016C299.029 320.016 254.396 291.454 254.396 291.454L268.791 273.934Z" fill="#333333" stroke="#333333" stroke-width="0.9" stroke-linecap="round" stroke-linejoin="round"/>
<path d="M70.8555 313.909C71.1455 308.467 73.4659 274.546 100.696 254.322C128.786 233.458 171.865 235.729 203.937 262.271C205.176 260.757 223.665 238.841 247.016 242.13C270.849 245.488 291.786 273.956 286.502 308.57C214.62 310.349 142.738 312.129 70.8555 313.909Z" fill="#6E8A3D"/>
<path d="M241.708 301.272C241.708 301.272 -2.65736 301.272 0.0218714 336.083C2.7011 370.898 254.313 356.838 254.313 356.838C254.313 356.838 276.086 418.431 358.985 409.724C441.888 401.023 412.432 362.865 412.432 362.865C412.432 362.865 440.546 358.849 471.345 349.474C502.139 340.099 494.549 308.636 403.278 303.951C312.007 299.262 241.708 301.272 241.708 301.272Z" fill="white"/>
<path d="M241.708 301.428C241.708 301.428 -2.65736 301.428 0.0218714 336.239C2.7011 371.054 254.313 356.994 254.313 356.994C254.313 356.994 276.086 418.587 358.985 409.881C441.888 401.179 412.432 363.021 412.432 363.021C412.432 363.021 440.546 359.005 471.345 349.63C502.139 340.255 494.549 308.793 403.278 304.108C312.007 299.418 241.708 301.428 241.708 301.428Z" fill="#D8EED9"/>
<path d="M123.986 279.415L126.461 328.69L122.838 339.066L121.428 291.908L123.986 279.415Z" fill="#333333" stroke="#333333" stroke-width="2"/>
<path d="M121.265 344.342H51.2314V290.266H121.265V344.342Z" fill="white" stroke="#333333" stroke-width="1.8" stroke-linecap="round" stroke-linejoin="round"/>
<path d="M51.2314 290.266L64.0868 306.665H112.401L121.265 290.266" fill="white"/>
<path d="M51.2314 290.266L64.0868 306.665H112.401L121.265 290.266" stroke="#333333" stroke-width="1.8" stroke-linecap="round" stroke-linejoin="round"/>
<path d="M51.2314 290.268L64.8636 271.484H124.588L121.265 290.268H51.2314Z" fill="#333333" stroke="#333333" stroke-width="0.9" stroke-linecap="round" stroke-linejoin="round"/>
<path d="M124.776 272.207L133.679 286.945V301.737L121.266 290.268L124.776 272.207Z" fill="white" stroke="#333333" stroke-width="1.8" stroke-linecap="round" stroke-linejoin="round"/>
<path d="M49.7371 278.631L64.4674 272.207L51.2316 290.267L37.7666 294.923L49.7371 278.631Z" fill="white" stroke="#333333" stroke-width="1.8" stroke-linecap="round" stroke-linejoin="round"/>
<path d="M438.954 176.755C438.954 168.496 432.258 161.801 424.004 161.801C415.745 161.801 409.05 168.496 409.05 176.755C409.05 185.009 415.745 191.705 424.004 191.705C432.258 191.705 438.954 185.009 438.954 176.755Z" fill="#333333"/>
<path d="M438.954 176.755C438.954 168.496 432.258 161.801 424.004 161.801C415.745 161.801 409.05 168.496 409.05 176.755C409.05 185.009 415.745 191.705 424.004 191.705C432.258 191.705 438.954 185.009 438.954 176.755Z" stroke="#333333" stroke-width="0.9" stroke-linecap="round" stroke-linejoin="round"/>
<path d="M276.74 250.449C276.74 244.579 271.982 239.82 266.117 239.82C260.247 239.82 255.488 244.579 255.488 250.449C255.488 256.314 260.247 261.072 266.117 261.072C271.982 261.072 276.74 256.314 276.74 250.449Z" fill="#333333"/>
<path d="M276.74 250.449C276.74 244.579 271.982 239.82 266.117 239.82C260.247 239.82 255.488 244.579 255.488 250.449C255.488 256.314 260.247 261.072 266.117 261.072C271.982 261.072 276.74 256.314 276.74 250.449Z" stroke="#333333" stroke-width="0.9" stroke-linecap="round" stroke-linejoin="round"/>
<path d="M54.6185 243.477C54.6185 239.632 51.4968 236.516 47.6525 236.516C43.8082 236.516 40.6865 239.632 40.6865 243.477C40.6865 247.321 43.8082 250.443 47.6525 250.443C51.4968 250.443 54.6185 247.321 54.6185 243.477Z" fill="#6E8A3D"/>
<path d="M54.6185 243.477C54.6185 239.632 51.4968 236.516 47.6525 236.516C43.8082 236.516 40.6865 239.632 40.6865 243.477C40.6865 247.321 43.8082 250.443 47.6525 250.443C51.4968 250.443 54.6185 247.321 54.6185 243.477Z" stroke="#333333" stroke-width="1.8" stroke-linecap="round" stroke-linejoin="round"/>
<path d="M361.862 342.298C361.758 339.232 361.422 336.816 361.422 336.816L350.303 335.172L349.631 339.625C353.044 341.848 357.435 342.526 361.862 342.298Z" fill="#1C0311"/>
<path d="M361.862 342.298C361.758 339.232 361.422 336.816 361.422 336.816L350.303 335.172L349.631 339.625C353.044 341.848 357.435 342.526 361.862 342.298Z" stroke="#1A1A1A" stroke-width="0.9" stroke-linecap="round" stroke-linejoin="round"/>
<path d="M347.64 343.241C346.663 342.853 346.042 342 345.897 341.027C345.339 341.198 344.702 341.4 343.963 341.627C337.509 343.51 324.124 350.548 324.595 353.248C325.066 355.948 352.884 356.418 358.283 354.774C361.267 353.869 361.909 348.49 361.893 343.851C357.14 344.296 352.393 344.828 347.64 343.241Z" fill="white"/>
<path d="M347.64 343.241C346.663 342.853 346.042 342 345.897 341.027C345.339 341.198 344.702 341.4 343.963 341.627C337.509 343.51 324.124 350.548 324.595 353.248C325.066 355.948 352.884 356.418 358.283 354.774C361.267 353.869 361.909 348.49 361.893 343.851C357.14 344.296 352.393 344.828 347.64 343.241Z" stroke="#1A1A1A" stroke-width="1.8" stroke-linecap="round" stroke-linejoin="round"/>
<path d="M349.636 339.629L349.594 339.872C349.594 339.872 349.594 339.872 345.896 341.03C346.041 342.003 346.667 342.856 347.639 343.244C352.392 344.832 357.14 344.299 361.892 343.854C361.887 343.327 361.877 342.804 361.861 342.303C357.434 342.53 353.044 341.853 349.636 339.629Z" fill="white"/>
<path d="M349.636 339.629L349.594 339.872C349.594 339.872 349.594 339.872 345.896 341.03C346.041 342.003 346.667 342.856 347.639 343.244C352.392 344.832 357.14 344.299 361.892 343.854C361.887 343.327 361.877 342.804 361.861 342.303C357.434 342.53 353.044 341.853 349.636 339.629Z" stroke="#1A1A1A" stroke-width="1.8" stroke-linecap="round" stroke-linejoin="round"/>
<path d="M335.373 124.011C335.373 124.011 342.169 328.049 347.325 337.264C355.961 340.698 362.535 338.387 362.535 338.387C362.535 338.387 379.296 225.805 385.58 189.35C391.868 152.895 380.486 121.699 380.486 121.699" fill="#6E8A3D"/>
<path d="M335.373 124.011C335.373 124.011 342.169 328.049 347.325 337.264C355.961 340.698 362.535 338.387 362.535 338.387C362.535 338.387 379.296 225.805 385.58 189.35C391.868 152.895 380.486 121.699 380.486 121.699" stroke="#333333" stroke-width="1.8" stroke-linecap="round" stroke-linejoin="round"/>
<path d="M361.422 149.188C361.422 149.188 364.153 159.226 372.841 160.632" stroke="#1A1A1A" stroke-width="1.8" stroke-linecap="round" stroke-linejoin="round"/>
<path d="M389.717 340.168C389.056 337.063 388.465 334.75 388.465 334.75L378.808 336.857C378.808 336.857 378.099 339.777 377.453 342.251C381.58 342.422 385.824 341.728 389.717 340.168Z" fill="#333333"/>
<path d="M389.717 340.168C389.056 337.063 388.465 334.75 388.465 334.75L378.808 336.857C378.808 336.857 378.099 339.777 377.453 342.251C381.58 342.422 385.824 341.728 389.717 340.168Z" stroke="#333333" stroke-width="0.9" stroke-linecap="round" stroke-linejoin="round"/>
<path d="M382.588 347.846C385.649 347.274 388.235 345.758 390.426 343.738C390.201 342.492 389.957 341.279 389.717 340.164C385.825 341.724 381.581 342.418 377.454 342.247C377.018 343.924 376.613 345.396 376.476 345.621C376.422 345.714 375.865 346.178 374.989 346.902C376.417 348.672 380.495 348.369 382.588 347.846Z" fill="white"/>
<path d="M382.588 347.846C385.649 347.274 388.235 345.758 390.426 343.738C390.201 342.492 389.957 341.279 389.717 340.164C385.825 341.724 381.581 342.418 377.454 342.247C377.018 343.924 376.613 345.396 376.476 345.621C376.422 345.714 375.865 346.178 374.989 346.902C376.417 348.672 380.495 348.369 382.588 347.846Z" stroke="#333333" stroke-width="1.8" stroke-linecap="round" stroke-linejoin="round"/>
<path d="M382.588 347.85C380.495 348.373 376.417 348.676 374.989 346.906C370.545 350.583 357.807 361.047 359.939 364.382C362.491 368.376 388.465 358.612 390.793 355.727C391.991 354.24 391.34 348.739 390.426 343.742C388.235 345.762 385.649 347.277 382.588 347.85Z" fill="white"/>
<path d="M382.588 347.85C380.495 348.373 376.417 348.676 374.989 346.906C370.545 350.583 357.807 361.047 359.939 364.382C362.491 368.376 388.465 358.612 390.793 355.727C391.991 354.24 391.34 348.739 390.426 343.742C388.235 345.762 385.649 347.277 382.588 347.85Z" stroke="#333333" stroke-width="1.8" stroke-linecap="round" stroke-linejoin="round"/>
<path d="M386.842 132.613C386.842 132.613 402.293 146.877 400.313 189.27C398.332 231.659 390.215 335.188 390.215 335.188C390.215 335.188 385.238 342.43 377.585 338.386C374.842 332.142 361.405 269.838 352.159 215.577C352.159 215.577 345.622 169.169 344.624 157.179" fill="#6E8A3D"/>
<path d="M386.842 132.613C386.842 132.613 402.293 146.877 400.313 189.27C398.332 231.659 390.215 335.188 390.215 335.188C390.215 335.188 385.238 342.43 377.585 338.386C374.842 332.142 361.405 269.838 352.159 215.577C352.159 215.577 345.622 169.169 344.624 157.179" stroke="#333333" stroke-width="1.8" stroke-linecap="round" stroke-linejoin="round"/>
<path d="M186.534 198C185.396 204.32 182.202 221.883 187.342 235.844C197.633 263.786 178.151 321.174 127 313.258" stroke="#333333" stroke-width="1.5" stroke-linecap="round" stroke-linejoin="round" stroke-dasharray="3.6 3.6"/>
<path d="M215.26 198C211.136 205.4 206.515 223.381 219.782 235.796C273.459 286.027 181.23 311.152 127 300.639" stroke="#333333" stroke-width="1.5" stroke-linecap="round" stroke-linejoin="round" stroke-dasharray="3.6 3.6"/>
<path d="M64.3747 44.3477C49.4537 44.3477 37.3574 56.4495 37.3574 71.3704V179.279C37.3574 194.2 49.4537 206.302 64.3747 206.302H283.803C298.724 206.302 310.825 194.2 310.825 179.279V71.3704" stroke="#333333" stroke-width="2"/>
<path d="M64.3747 208.302H283.803C299.828 208.302 312.825 195.304 312.825 179.279V71.3704C312.825 55.3449 299.828 42.3477 283.803 42.3477H164.733H114.554H64.3747C48.3486 42.3477 35.3574 55.3454 35.3574 71.3704V179.279C35.3574 195.304 48.3486 208.302 64.3747 208.302Z" fill="#D8EED9" stroke="#52672D" stroke-width="4" stroke-linecap="round" stroke-linejoin="round"/>
<path d="M349.5 110.193C336.516 123.758 319.446 100.487 319.446 100.487C319.446 100.487 314.888 94.1659 312.93 92.6282C311.038 91.1369 313.949 82.8319 318.052 81.7088C320.58 81.0132 332.994 94.0862 332.994 94.0862C332.994 94.0862 349.603 107.719 352.102 94.2581" fill="white"/>
<path d="M349.5 110.193C336.516 123.758 319.446 100.487 319.446 100.487C319.446 100.487 314.888 94.1659 312.93 92.6282C311.038 91.1369 313.949 82.8319 318.052 81.7088C320.58 81.0132 332.994 94.0862 332.994 94.0862C332.994 94.0862 349.603 107.719 352.102 94.2581" stroke="#333333" stroke-width="1.8" stroke-linecap="round" stroke-linejoin="round"/>
<path d="M315.924 81.9129C315.924 81.9129 309.546 75.3598 306.277 75.6678C303.009 75.9758 296.162 80.5273 297.128 86.8357C297.269 87.6207 298.469 85.8777 298.469 85.8777C298.469 85.8777 299.049 83.0406 301.039 82.7373C302.48 86.7446 305.405 87.7868 307.54 87.9603C309.674 88.1292 312.296 89.7722 312.296 89.7722C312.296 89.7722 318.243 85.2649 315.924 81.9129Z" fill="white" stroke="#333333" stroke-width="1.8" stroke-linecap="round" stroke-linejoin="round"/>
<path d="M336.882 141.465C345.071 122.156 387.268 140.555 387.268 140.555L336.882 141.465Z" fill="white"/>
<path d="M336.882 141.465C345.071 122.156 387.268 140.555 387.268 140.555" stroke="#333333" stroke-width="1.8" stroke-linecap="round" stroke-linejoin="round"/>
<path d="M336.881 146.374C336.881 146.374 364.07 157.195 381.445 152.44C393.247 148.833 395.619 148.324 395.619 148.324L391.113 139.804L336.453 139.035V146.341" fill="#333333"/>
<path d="M336.881 146.374C336.881 146.374 364.07 157.195 381.445 152.44C393.247 148.833 395.619 148.324 395.619 148.324L391.113 139.804L336.453 139.035V146.341" stroke="#333333" stroke-width="0.9" stroke-linecap="round" stroke-linejoin="round"/>
<path d="M371.252 49.1719C371.252 49.1719 352.507 60.7949 345.704 69.921C337.109 81.4465 333.94 129.287 333.94 129.287C333.94 129.287 346.945 131.86 347.735 130.912C348.531 129.97 380.871 61.2336 380.871 59.9229" fill="white"/>
<path d="M371.252 49.1719C371.252 49.1719 354.538 60.3178 347.735 69.444C339.14 80.9695 333.94 129.287 333.94 129.287C333.94 129.287 346.945 131.86 347.735 130.912C348.531 129.97 380.871 61.2336 380.871 59.9229" stroke="#333333" stroke-width="1.8" stroke-linecap="round" stroke-linejoin="round"/>
<path d="M354.001 74.9993C353.156 76.0446 321.791 135.264 340.921 143.492C371.533 156.658 394.221 143.67 394.221 143.67C394.221 143.67 406.716 53.4594 393.879 50.8272C381.043 48.1949 371.863 48.3736 371.863 48.3736" fill="white"/>
<path d="M353.389 75.7962C352.544 76.8415 320.5 135.5 340.309 144.288C370.921 157.455 375.54 154.801 393.609 144.467C412.965 133.396 406.104 54.2563 393.268 51.624C380.431 48.9918 371.251 49.1705 371.251 49.1705" stroke="#333333" stroke-width="1.8" stroke-linecap="round" stroke-linejoin="round"/>
<path d="M372.972 66.8438C372.972 66.8438 366.082 75.6937 363.055 84.132" stroke="#333333" stroke-width="1.8" stroke-linecap="round" stroke-linejoin="round"/>
<path d="M333.469 101.624L326.803 122.491L357.109 122.589L368.941 103.49L333.469 101.624Z" fill="white"/>
<path d="M333.469 101.624L326.803 122.491L357.109 122.589L368.941 103.49L333.469 101.624Z" stroke="#333333" stroke-width="1.8" stroke-linecap="round" stroke-linejoin="round"/>
<path d="M314.837 119.938L333.529 126.165L334 123.5L316 117L314.837 119.938Z" fill="#333333"/>
<path d="M326.862 122.483L334.29 100.799L331.78 100.81L324.317 120.865L326.862 122.483Z" fill="#333333"/>
<path d="M358.159 123.025C358.159 123.025 343.11 120.867 340.506 119.978C337.902 119.089 336.672 120.805 338.253 121.859C339.834 122.918 344.722 123.821 344.634 124.792C344.545 125.763 334.454 123.173 334.454 123.173C334.454 123.173 333.585 126.656 336.429 128.611C339.273 130.57 342.088 132.064 347.105 130.828C352.123 129.586 360.5 130.5 360.5 130.5" fill="white"/>
<path d="M358.159 123.025C358.159 123.025 343.11 120.867 340.506 119.978C337.902 119.089 336.672 120.805 338.253 121.859C339.834 122.918 344.722 123.821 344.634 124.792C344.545 125.763 334.454 123.173 334.454 123.173C334.454 123.173 333.585 126.656 336.429 128.611C339.273 130.57 342.088 132.064 347.105 130.828C352.123 129.586 360.5 130.5 360.5 130.5L358.159 123.025Z" stroke="#333333" stroke-width="1.5" stroke-linecap="round" stroke-linejoin="round"/>
<path d="M385.591 76.7031C385.591 76.7031 382.475 91.1034 379.454 95.8811C376.681 100.274 358.074 120.428 358.074 120.428C358.074 120.428 357.966 129.953 361.985 130.306C379.6 131.858 395.479 111.461 400.687 95.674C410.023 72.3422 396 53.4994 396 53.4994" stroke="#333333" stroke-width="1.8" stroke-linecap="round" stroke-linejoin="round"/>
<path d="M530.115 279.764C530.115 279.764 505.632 242.446 472.428 277.979C485.665 298.004 523.093 289.385 530.115 279.764Z" fill="#A1BF6E"/>
<path d="M530.115 279.764C530.115 279.764 505.632 242.446 472.428 277.979C485.665 298.004 523.093 289.385 530.115 279.764Z" stroke="#333333" stroke-width="1.8" stroke-linecap="round" stroke-linejoin="round"/>
<path d="M480.763 257.364C480.763 257.364 503.605 258.222 510.329 225.608C517.053 192.988 497.448 169.17 497.448 169.17C497.448 169.17 475.104 237.527 480.763 257.364Z" fill="white"/>
<path d="M480.763 257.364C480.763 257.364 503.605 258.222 510.329 225.608C517.053 192.988 497.448 169.17 497.448 169.17C497.448 169.17 475.104 237.527 480.763 257.364Z" stroke="#333333" stroke-width="1.8" stroke-linecap="round" stroke-linejoin="round"/>
<path d="M464.101 265.902C464.101 265.902 429.865 222.58 459.379 182.756C479.427 222.44 477.571 257.332 464.101 265.902Z" fill="#6E8A3D"/>
<path d="M464.101 265.902C464.101 265.902 429.865 222.58 459.379 182.756C479.427 222.44 477.571 257.332 464.101 265.902Z" stroke="#333333" stroke-width="1.8" stroke-linecap="round" stroke-linejoin="round"/>
<path d="M459.379 182.754C459.379 182.754 467.691 261.177 463.755 282.188" stroke="#333333" stroke-width="1.8" stroke-linecap="round" stroke-linejoin="round"/>
<path d="M530.115 279.763C529.448 279.472 470.492 273.672 465.119 280.541" stroke="#333333" stroke-width="1.8" stroke-linecap="round" stroke-linejoin="round"/>
<path d="M497.449 169.17C497.449 169.17 499.123 200.922 498.667 205.778C493.975 255.508 444.155 305.134 444.155 305.134" stroke="#333333" stroke-width="1.8" stroke-linecap="round" stroke-linejoin="round"/>
<path d="M372.458 55.0206L369.385 40.8982C369.385 40.8982 358.062 44.2289 355.005 37.5945C351.947 30.9601 349.446 14.8411 359.64 8.79215C368.5 3.54027 376.114 3.18183 380.188 14.15C384.257 25.1178 383.991 29.537 386.423 36.8247C388.857 44.1073 388.361 52.5362 388.361 52.5362C388.361 52.5362 375.406 61.3626 372.458 55.0206Z" fill="white"/>
<path d="M372.458 55.0171L369.386 40.8948C369.386 40.8948 360.558 44.6344 357.501 38C354.443 31.3656 349.446 14.8376 359.64 8.78869C368.5 3.5368 376.114 3.17836 380.189 14.1466C384.258 25.1143 383.991 29.5336 386.424 36.8213C388.857 44.1038 388.361 52.5328 388.361 52.5328C388.361 52.5328 375.407 61.3591 372.458 55.0171Z" stroke="#333333" stroke-width="1.8" stroke-linecap="round" stroke-linejoin="round"/>
<path d="M351.529 16.6963C351.529 16.6963 351.727 20.7349 358.086 19.5235C364.445 18.3121 364.386 21.2709 364.212 23.1579C364.038 25.05 366.02 27.9882 368.366 27.0389C370.717 26.0901 374.682 27.8834 373.332 31.0681C371.977 34.2524 373.623 38.2209 377.929 37.4525C380.425 41.3896 389.173 41.8783 389.133 35.4126C394.613 34.5436 394.872 27.1541 389.304 23.2522C394.33 19.2671 394.018 14.8258 386.966 14.1383C392.399 5.74681 379.668 -0.301057 374.629 4.10636C372.155 1.33718 362.178 0.165243 361.443 5.40912C357.298 3.99126 345.961 5.4856 351.529 16.6963Z" fill="#333333"/>
<path d="M351.529 16.6963C351.529 16.6963 351.727 20.7349 358.086 19.5235C364.445 18.3121 364.386 21.2709 364.212 23.1579C364.038 25.05 366.02 27.9882 368.366 27.0389C370.717 26.0901 374.682 27.8834 373.332 31.0681C371.977 34.2524 373.623 38.2209 377.929 37.4525C380.425 41.3896 389.173 41.8783 389.133 35.4126C394.613 34.5436 394.872 27.1541 389.304 23.2522C394.33 19.2671 394.018 14.8258 386.966 14.1383C392.399 5.74681 379.668 -0.301057 374.629 4.10636C372.155 1.33718 362.178 0.165243 361.443 5.40912C357.298 3.99126 345.961 5.4856 351.529 16.6963Z" stroke="#333333" stroke-width="0.9" stroke-linecap="round" stroke-linejoin="round"/>
<path d="M244.14 185.673H102.267C101.355 185.673 100.578 184.93 100.578 183.984V80.957H245.829V183.984C245.829 184.93 245.086 185.673 244.14 185.673Z" fill="white"/>
<path d="M244.139 187.367H102.266C100.408 187.367 98.8877 185.847 98.8877 183.989V79.2734H247.517V183.989C247.517 185.847 245.997 187.367 244.139 187.367ZM102.266 180.611V183.989H244.139V82.6514H102.266V180.611Z" fill="#333333"/>
<path d="M239.074 180.606H107.334C106.422 180.606 105.646 179.862 105.646 178.917V87.7124C105.646 86.7666 106.422 86.0234 107.334 86.0234H239.074C240.02 86.0234 240.763 86.7666 240.763 87.7124V178.917C240.763 179.862 240.02 180.606 239.074 180.606Z" fill="#D8EED9"/>
<path d="M245.829 80.9473H100.578V64.0576C100.578 62.1998 102.098 60.6797 103.956 60.6797H242.451C244.309 60.6797 245.829 62.1998 245.829 64.0576V80.9473Z" fill="#A1BF6E"/>
<path d="M245.828 82.6455H100.577C99.6308 82.6455 98.8877 81.9024 98.8877 80.9566V64.0669C98.8877 61.2632 101.151 59 103.955 59H242.45C245.254 59 247.517 61.2632 247.517 64.0669V80.9566C247.517 81.9024 246.774 82.6455 245.828 82.6455ZM102.266 79.2676H244.139V64.0669C244.139 63.1549 243.396 62.3779 242.45 62.3779H103.955C103.009 62.3779 102.266 63.1549 102.266 64.0669V79.2676Z" fill="#333333"/>
<path d="M225.682 157.709C222.878 157.709 220.615 155.446 220.615 152.642V145.886C220.615 144.94 221.358 144.197 222.304 144.197C223.25 144.197 223.993 144.94 223.993 145.886V152.642C223.993 153.588 224.736 154.331 225.682 154.331C226.628 154.331 227.371 153.588 227.371 152.642V139.13C227.371 138.185 228.114 137.441 229.06 137.441H232.438C233.384 137.441 234.127 136.698 234.127 135.752C234.127 135.313 233.958 134.908 233.654 134.57C233.012 133.895 233.012 132.847 233.688 132.206C234.363 131.53 235.444 131.564 236.086 132.239C236.998 133.185 237.505 134.435 237.505 135.752C237.505 138.556 235.242 140.819 232.438 140.819H230.749V152.642C230.749 155.446 228.486 157.709 225.682 157.709ZM222.304 140.819H202.037C199.233 140.819 196.97 138.556 196.97 135.752C196.97 134.469 197.78 133.016 197.814 132.983L221.527 99.0681C222.845 97.5481 224.196 96.9062 225.682 96.9062C228.486 96.9062 230.749 99.1695 230.749 101.973V132.375C230.749 133.32 230.006 134.064 229.06 134.064C228.114 134.064 227.371 133.32 227.371 132.375V101.973C227.371 101.061 226.628 100.284 225.682 100.284C225.04 100.284 224.601 100.656 224.23 101.095L200.652 134.773C200.618 134.874 200.348 135.516 200.348 135.752C200.348 136.698 201.091 137.441 202.037 137.441H222.304C223.25 137.441 223.993 138.185 223.993 139.13C223.993 140.076 223.25 140.819 222.304 140.819ZM222.304 134.064H208.522C207.88 134.064 207.306 133.726 207.036 133.151C206.732 132.611 206.766 131.935 207.137 131.395L216.325 118.255C216.866 117.512 217.947 117.309 218.69 117.849C219.467 118.39 219.636 119.437 219.095 120.214L211.765 130.686H220.615V112.107C220.615 111.161 221.358 110.418 222.304 110.418C223.25 110.418 223.993 111.161 223.993 112.107V132.375C223.993 133.32 223.25 134.064 222.304 134.064Z" fill="#333333"/>
<path d="M138.093 156.115C135.29 156.115 133.026 153.852 133.026 151.048V144.293C133.026 143.347 133.77 142.604 134.715 142.604C135.661 142.604 136.404 143.347 136.404 144.293V151.048C136.404 151.994 137.147 152.737 138.093 152.737C139.039 152.737 139.782 151.994 139.782 151.048V137.537C139.782 136.591 140.525 135.848 141.471 135.848H144.849C145.795 135.848 146.538 135.105 146.538 134.159C146.538 133.72 146.369 133.314 146.065 132.976C145.423 132.301 145.423 131.254 146.099 130.612C146.775 129.936 147.856 129.97 148.497 130.646C149.409 131.592 149.916 132.841 149.916 134.159C149.916 136.962 147.653 139.226 144.849 139.226H143.16V151.048C143.16 153.852 140.897 156.115 138.093 156.115ZM134.715 139.226H114.448C111.644 139.226 109.381 136.962 109.381 134.159C109.381 132.875 110.192 131.423 110.225 131.389L133.938 97.4744C135.256 95.9543 136.607 95.3125 138.093 95.3125C140.897 95.3125 143.16 97.5757 143.16 100.379V130.781C143.16 131.727 142.417 132.47 141.471 132.47C140.525 132.47 139.782 131.727 139.782 130.781V100.379C139.782 99.4674 139.039 98.6904 138.093 98.6904C137.451 98.6904 137.012 99.062 136.641 99.5011L113.063 133.179C113.029 133.28 112.759 133.922 112.759 134.159C112.759 135.105 113.502 135.848 114.448 135.848H134.715C135.661 135.848 136.404 136.591 136.404 137.537C136.404 138.482 135.661 139.226 134.715 139.226ZM134.715 132.47H120.933C120.292 132.47 119.717 132.132 119.447 131.558C119.143 131.017 119.177 130.342 119.548 129.801L128.736 116.661C129.277 115.918 130.324 115.715 131.101 116.256C131.878 116.796 132.047 117.843 131.506 118.62L124.176 129.092H133.026V110.513C133.026 109.567 133.77 108.824 134.715 108.824C135.661 108.824 136.404 109.567 136.404 110.513V130.781C136.404 131.727 135.661 132.47 134.715 132.47Z" fill="#333333"/>
<path d="M173.909 155.295C162.728 155.295 153.642 146.208 153.642 135.027V114.76C153.642 103.579 162.728 94.4922 173.909 94.4922C185.09 94.4922 194.177 103.579 194.177 114.76V135.027C194.177 137.392 193.771 139.723 192.961 141.952C192.657 142.83 191.677 143.27 190.799 142.966C189.921 142.628 189.481 141.682 189.785 140.804C190.461 138.946 190.799 137.02 190.799 135.027V114.76C190.799 105.437 183.232 97.8701 173.909 97.8701C164.586 97.8701 157.02 105.437 157.02 114.76V135.027C157.02 144.35 164.586 151.917 173.909 151.917C178.605 151.917 182.996 150.025 186.239 146.58C186.88 145.904 187.928 145.871 188.603 146.512C189.279 147.12 189.313 148.201 188.705 148.877C184.854 152.964 179.483 155.295 173.909 155.295ZM173.909 148.539C166.444 148.539 160.397 142.493 160.397 135.027V114.76C160.397 113.375 160.6 112.024 161.005 110.706C161.276 109.828 162.222 109.321 163.134 109.592C164.012 109.896 164.519 110.841 164.248 111.72C163.944 112.699 163.775 113.713 163.775 114.76V135.027C163.775 140.601 168.336 145.161 173.909 145.161C179.483 145.161 184.043 140.601 184.043 135.027V114.76C184.043 109.186 179.483 104.626 173.909 104.626C171.849 104.626 169.856 105.234 168.167 106.416C167.39 106.957 166.343 106.754 165.802 105.977C165.295 105.234 165.498 104.153 166.241 103.646C168.505 102.059 171.173 101.248 173.909 101.248C181.374 101.248 187.421 107.295 187.421 114.76V135.027C187.421 142.493 181.374 148.539 173.909 148.539Z" fill="#333333"/>
<path d="M147.867 170.468H137.733C136.787 170.468 136.044 169.725 136.044 168.779C136.044 167.833 136.787 167.09 137.733 167.09H147.867C148.813 167.09 149.556 167.833 149.556 168.779C149.556 169.725 148.813 170.468 147.867 170.468Z" fill="#333333"/>
<path d="M178.378 170.468H168.245C167.333 170.468 166.556 169.725 166.556 168.779C166.556 167.833 167.333 167.09 168.245 167.09H178.378C179.324 167.09 180.067 167.833 180.067 168.779C180.067 169.725 179.324 170.468 178.378 170.468Z" fill="#333333"/>
<path d="M208.89 170.468H198.756C197.844 170.468 197.067 169.725 197.067 168.779C197.067 167.833 197.844 167.09 198.756 167.09H208.89C209.836 167.09 210.579 167.833 210.579 168.779C210.579 169.725 209.836 170.468 208.89 170.468Z" fill="#333333"/>
</svg>
